<?xml version="1.0" encoding="UTF-8" standalone="no"?>
<svg
   xmlns:dc="http://purl.org/dc/elements/1.1/"
   xmlns:cc="http://creativecommons.org/ns#"
   xmlns:rdf="http://www.w3.org/1999/02/22-rdf-syntax-ns#"
   xmlns:svg="http://www.w3.org/2000/svg"
   xmlns="http://www.w3.org/2000/svg"
   version="1.1"
   id="Capa_1"
   x="0px"
   y="0px"
   viewBox="0 0 512 512"
   style="enable-background:new 0 0 512 512;"
   xml:space="preserve"><metadata
   id="metadata57"><rdf:RDF><cc:Work
       rdf:about=""><dc:format>image/svg+xml</dc:format><dc:type
         rdf:resource="http://purl.org/dc/dcmitype/StillImage" /><dc:title></dc:title></cc:Work></rdf:RDF></metadata><defs
   id="defs55"><rect
   x="109.54336"
   y="338.38896"
   width="144.26045"
   height="76.856076"
   id="rect70" />
	
	
	
	
	
	
	
	
	
<rect
   x="109.54336"
   y="338.38895"
   width="144.26045"
   height="76.856079"
   id="rect70-4" /><rect
   x="109.54336"
   y="338.38895"
   width="144.26045"
   height="76.856079"
   id="rect908" /></defs>
<circle
   style="fill:#2980ba"
   cx="256"
   cy="256"
   id="circle2"
   r="256" /><path
   style="fill:#e64c3c"
   d="m 476.69,299.54403 v 158.897 c -0.029,9.739 -7.916,17.627 -17.655,17.655 H 52.966 c -9.739,-0.029 -17.627,-7.916 -17.655,-17.655 v -158.897 c 0,0 441.378,0.59397 441.379,0 z"
   id="path4" /><path
   style="fill:#c03a2b"
   d="M 459.034,44.138 V 256 h -35.31 V 70.621 H 88.276 V 256 H 52.966 V 44.138 c 0.015,-4.869 3.958,-8.813 8.828,-8.828 h 388.414 c 4.868,0.015 8.812,3.959 8.826,8.828 z"
   id="path6" /><path
   style="fill:#464f5d"
   d="M 423.724,71.503 V 256 H 298.637 l -17.655,-17.655 38.047,-38.047 c 3.017,-2.864 7.585,-3.335 11.123,-1.148 10.358,5.882 23.37,4.11 31.779,-4.326 l 18.714,-18.714 c 10.328,-10.339 10.328,-27.09 0,-37.429 l -18.714,18.714 c -6.899,6.899 -18.083,6.899 -24.982,0 -6.899,-6.899 -6.899,-18.083 0,-24.982 l 18.715,-18.714 c -10.339,-10.329 -27.09,-10.329 -37.429,0 l -18.714,18.714 c -8.436,8.409 -10.207,21.421 -4.326,31.779 2.188,3.538 1.716,8.106 -1.148,11.123 L 256,213.363 217.953,175.316 c -2.864,-3.017 -3.335,-7.585 -1.148,-11.123 5.882,-10.358 4.111,-23.37 -4.326,-31.779 L 193.765,113.7 c -10.339,-10.329 -27.09,-10.329 -37.429,0 l 18.714,18.714 c 6.899,6.899 6.899,18.083 0,24.982 -6.899,6.899 -18.083,6.899 -24.982,0 l -18.714,-18.714 c -10.328,10.339 -10.328,27.09 0,37.429 l 18.714,18.714 c 8.409,8.436 21.421,10.207 31.779,4.326 3.538,-2.188 8.106,-1.717 11.123,1.148 L 231.017,238.346 213.363,256 H 88.276 V 71.503 c 0.253,-0.364 0.585,-0.666 0.971,-0.883 h 333.506 c 0.386,0.218 0.718,0.52 0.971,0.883 z"
   id="path8" /><path
   style="fill:#e6e7e8"
   d="m 256,213.363 -24.982,24.982 -38.047,-38.047 c -3.017,-2.864 -7.585,-3.335 -11.123,-1.148 -10.358,5.882 -23.37,4.11 -31.779,-4.326 L 131.355,176.11 c -10.328,-10.339 -10.328,-27.09 0,-37.429 l 18.714,18.714 c 6.899,6.899 18.083,6.899 24.982,0 6.899,-6.899 6.899,-18.083 0,-24.982 l -18.714,-18.714 c 10.339,-10.329 27.09,-10.329 37.429,0 l 18.714,18.714 c 8.436,8.409 10.207,21.421 4.326,31.779 -2.188,3.538 -1.716,8.106 1.148,11.123 z"
   id="path10" /><path
   style="fill:#95a5a5"
   d="m 380.646,176.11 -18.714,18.714 c -8.409,8.436 -21.421,10.207 -31.779,4.326 -3.538,-2.188 -8.106,-1.717 -11.123,1.148 L 263.327,256 h -49.964 l 80.684,-80.684 c 2.864,-3.017 3.335,-7.585 1.148,-11.123 -5.882,-10.358 -4.111,-23.37 4.326,-31.779 L 318.235,113.7 c 10.339,-10.329 27.09,-10.329 37.429,0 l -18.715,18.714 c -6.899,6.899 -6.899,18.083 0,24.982 6.899,6.899 18.083,6.899 24.982,0 l 18.714,-18.714 c 10.328,10.338 10.328,27.089 0.001,37.428 z"
   id="path12" /><text
   xml:space="preserve"
   id="text68"
   style="font-style:normal;font-weight:normal;font-size:64px;line-height:1.25;font-family:sans-serif;white-space:pre;shape-inside:url(#rect70);fill:#7e251b;fill-opacity:1;stroke:none;"
   transform="matrix(2.383754,0,0,2.383754,-171.1084,-495.39094)"><tspan
     x="109.54297"
     y="395.01367"><tspan
       style="font-style:normal;font-variant:normal;font-weight:bold;font-stretch:normal;font-family:'Nimbus Sans';-inkscape-font-specification:'Nimbus Sans Bold';fill:#7e251b;fill-opacity:1">QDS</tspan></tspan></text><path
   style="fill:#bdc3c7"
   d="m 282.54982,267.40078 v 44.138 c -0.029,9.739 -7.916,17.627 -17.655,17.655 h -17.655 c -9.739,-0.029 -17.627,-7.916 -17.655,-17.655 v -44.138 z"
   id="path14" /><polygon
   style="fill:#e6e7e8"
   points="280.982,238.345 298.637,256 263.327,256 "
   id="polygon16" /><rect
   x="35.310001"
   y="256"
   style="fill:#ff5364"
   width="441.379"
   height="44.138"
   id="rect18" />
<g
   id="g22">
</g>
<g
   id="g24">
</g>
<g
   id="g26">
</g>
<g
   id="g28">
</g>
<g
   id="g30">
</g>
<g
   id="g32">
</g>
<g
   id="g34">
</g>
<g
   id="g36">
</g>
<g
   id="g38">
</g>
<g
   id="g40">
</g>
<g
   id="g42">
</g>
<g
   id="g44">
</g>
<g
   id="g46">
</g>
<g
   id="g48">
</g>
<g
   id="g50">
</g>
</svg>
